<svg width="151" height="118" viewBox="0 0 151 118" fill="none" xmlns="http://www.w3.org/2000/svg">
<g clip-path="url(#clip0_74_9747)">
<path d="M79.2255 77.9488C70.8476 83.1848 71.4912 86.0819 71.4912 95.2039C71.4912 101.432 72.0196 102.586 75.7514 106.94C84.1024 116.683 92.769 86.2409 87.0852 79.6099C84.5043 76.5989 79.172 75.7648 77.7609 80.0928C77.0298 82.3348 67.1033 114.701 72.295 116.184C82.8642 119.204 79.5711 85.3418 77.6002 80.4138C75.6483 75.5348 63.9144 104.451 72.938 103.162C78.473 102.372 78.7255 95.1438 78.7255 90.8638C78.7255 89.0828 77.4265 77.7408 77.2786 83.9508C77.1317 90.1228 73.417 98.1198 74.4653 103.886C75.7878 111.16 78.7255 98.6919 78.7255 96.8119C78.7255 92.5239 81.6313 81.1268 78.404 83.9508C75.2392 86.7198 74.3849 93.6628 74.3849 97.4548" stroke="black" stroke-width="3" stroke-linecap="round"/>
<path d="M135.153 80.0929C129.994 85.3809 123.382 93.7569 132.26 99.4649C136.066 101.912 139.345 100.321 140.941 96.7319C148.506 79.7099 130.464 71.7329 125.186 90.8639C124.331 93.9619 120.516 111.262 126.472 111.924C133.59 112.715 138.259 101.258 139.172 95.6869C139.614 92.9959 139.258 75.8069 134.51 82.6649C132.824 85.1009 128.661 90.5729 126.472 91.6679" stroke="black" stroke-width="3" stroke-linecap="round"/>
<path d="M7.82896 88.7739C5.64016 90.4839 -2.10027 97.7119 3.48836 100.67C5.46376 101.716 11.0441 105.172 13.2949 102.921C20.3408 95.8749 10.8577 82.7409 4.13136 97.4549C3.22326 99.4419 2.03426 109.03 5.25666 109.03C11.1236 109.03 16.1279 101.064 17.957 96.3299C18.8734 93.9579 21.1891 75.9679 15.3848 83.6299C13.3948 86.2559 10.0674 95.6809 13.6164 97.4549" stroke="black" stroke-width="3" stroke-linecap="round"/>
<path d="M4.12266 81.5928C2.30526 90.9068 0.068481 93.2308 7.18586 100.349" stroke="black" stroke-width="3" stroke-linecap="round"/>
<path d="M37.7288 45.1804C27.4017 42.8567 19.2207 40.4244 9.27576 45.6889C2.72836 49.1559 2.04146 60.1009 2.04146 66.3469C2.04146 73.7959 4.93516 80.0929 4.93516 88.0509C4.93516 96.9799 25.3246 94.5609 30.9788 94.5609C48.0423 94.5609 63.9301 96.0079 80.8958 96.0079C91.494 96.0079 102.408 94.5609 112.647 94.5609C121.84 94.5609 129.246 92.1849 138.047 91.6679C146.405 91.1759 145.662 80.9579 147.854 75.7519C150.882 68.5599 146.728 58.9119 146.728 51.8789C146.728 44.7919 145.114 34.939 141.664 28.7288C139.451 24.7449 136.809 20.9559 132.26 18.6811C127.55 16.3261 122.075 19.2648 117.469 16.4304C111.776 12.9267 93.961 13.5529 88.2105 16.1089C80.9232 19.3477 70.8529 18.2556 62.8099 19.4046C56.7942 20.2639 45.1254 25.8364 42.5538 31.6226C39.2638 39.025 41.0498 48.2619 30.9788 48.2619" stroke="black" stroke-width="3" stroke-linecap="round"/>
<path d="M12.1696 55.4959C-6.06807 55.9409 8.81836 77.4129 21.1723 68.5179C26.1176 64.9569 26.7344 54.7469 25.111 49.0649C23.5006 43.4289 12.9337 53.2849 12.1696 54.0489" stroke="black" stroke-width="3" stroke-linecap="round"/>
<path d="M61.3631 51.1549C51.3238 51.1549 48.0683 53.0649 46.9748 63.4539C46.0171 72.5519 51.7487 71.4119 59.1928 71.4119C66.6819 71.4119 71.5598 63.8829 69.7228 56.9429C67.9444 50.2239 61.0653 51.1549 55.5756 51.1549" stroke="black" stroke-width="3" stroke-linecap="round"/>
<path d="M82.9232 17.3774C82.9232 15.8331 81.6452 5.47255 83.3877 3.73005C85.3308 1.78695 90.6274 4.71995 92.873 3.08705C96.275 0.612852 104.735 1.70435 109.11 1.96165C114.456 2.27615 118.759 4.25715 121.81 8.07065C124.765 11.7647 125.739 22.2601 125.739 17.5295" stroke="black" stroke-width="3" stroke-linecap="round"/>
<path d="M30.9788 48.2618H59.5947C62.6215 48.2618 66.344 48.8428 69.3209 48.1808C73.7141 47.2048 76.9808 42.9665 80.8958 42.5544C84.9686 42.1256 88.8427 41.1883 92.873 41.0271C95.754 40.9119 94.641 35.9145 94.641 33.7928C94.641 30.5795 95.9563 16.5896 91.7473 15.387" stroke="black" stroke-width="3" stroke-linecap="round"/>
<path d="M100.857 15.1825C100.857 21.9823 102.019 36.0231 99.303 42.474C96.321 49.5558 107.685 48.2618 111.36 48.2618C117.745 48.2618 143.249 52.4168 137.324 41.7505C135.064 37.6824 137.144 27.2826 134.43 25.1116C132.895 23.884 131.685 22.944 130.009 21.8963C129.245 21.4189 125.519 19.2179 125.025 18.6006C118.854 12.5917 96.3357 13.2501 91.7473 15.387" stroke="black" stroke-width="3" stroke-linecap="round"/>
<path d="M98.9442 44.4734C98.9442 55.6013 97.9139 62.7941 100.553 73.3491C101.631 77.6631 101.636 92.3296 105.911 94.4676" stroke="black" stroke-width="3" stroke-linecap="round"/>
<path d="M138.171 45.1179C139.537 55.1887 138.047 65.1808 138.047 75.2698C138.047 79.0078 139.758 87.2106 139.226 91.147" stroke="black" stroke-width="3" stroke-linecap="round"/>
<path d="M113.45 62.7299C118.803 63.7749 131.274 67.1329 133.706 59.8369" stroke="black" stroke-width="3" stroke-linecap="round"/>
</g>
<defs>
<clipPath id="clip0_74_9747">
<rect width="150.467" height="117.858" fill="white"/>
</clipPath>
</defs>
</svg>
